# xmcd
#
# Track frame offsets:
#	150
#	20454
#	37111
#	53040
#	70266
#	87446
#	113773
#	132726
#	150628
#	168740
#	196116
#
# Disc length: 2861 seconds
#
# Revision: 1
# Processed by: cddbd v1.5.1PL0 Copyright (c) Steve Scherf et al.
# Submitted via: audiograbber 1.83.01
#
DISCID=970b2b0b
DTITLE=Various Artist - ASK-806 Country Vol3
DYEAR=2005
DGENRE=
TTITLE0=Remember When  - Alan Jackson
TTITLE1=Save A Horse (Ride A Cowboy) - Big and Rich
TTITLE2=That's What It's All About - Brooks and Dunn
TTITLE3=Back Of The Bottom Drawer - Chely Wright
TTITLE4=I May Hate Myself In The Morning - Lee Ann Womack
TTITLE5=God's Will - Martina McBride
TTITLE6=Gone - Montgomery Gentry
TTITLE7=Somebody - Reba McEntire
TTITLE8=Don't - Shania Twain
TTITLE9=Honky Tonk U - Toby Keith
TTITLE10=Data Track
EXTD=
EXTT0=
EXTT1=
EXTT2=
EXTT3=
EXTT4=
EXTT5=
EXTT6=
EXTT7=
EXTT8=
EXTT9=
EXTT10=
PLAYORDER=
